<svg class="svg-icon" style="width: 1em; height: 1em;vertical-align: middle;fill: currentColor;overflow: hidden;" viewBox="0 0 1024 1024" version="1.1" xmlns="http://www.w3.org/2000/svg"><path d="M554.666667 344.874667V597.333333a42.666667 42.666667 0 0 1-85.333334 0V298.666667a42.666667 42.666667 0 0 1 42.666667-42.666667 341.333333 341.333333 0 1 1-149.461333 34.389333 42.666667 42.666667 0 1 1 37.376 76.714667A256 256 0 1 0 554.666667 344.917333zM469.333333 170.666667a42.666667 42.666667 0 0 1 0-85.333334h85.333334a42.666667 42.666667 0 0 1 0 85.333334h-85.333334z m230.4 55.466666a42.666667 42.666667 0 0 1 51.2-68.266666l85.333334 64a42.666667 42.666667 0 0 1-51.2 68.266666l-85.333334-64zM238.933333 290.133333a42.666667 42.666667 0 1 1-51.2-68.266666l85.333334-64a42.666667 42.666667 0 1 1 51.2 68.266666l-85.333334 64z"  /></svg>